<svg width="219" height="60" viewBox="0 0 219 60" fill="none" xmlns="http://www.w3.org/2000/svg">
<path d="M21.517 1.64C22.6104 1.56 23.157 1.96 23.157 2.84C23.157 3.29333 23.0104 3.81333 22.717 4.4C22.4504 4.96 22.1437 5.45333 21.797 5.88C21.4504 6.30667 21.117 6.6 20.797 6.76C20.5037 6.89333 20.1704 6.96 19.797 6.96L18.677 6.92C18.3037 6.92 18.0104 6.94666 17.797 7C16.4904 7.26667 15.1037 7.61333 13.637 8.04C13.6104 8.04 13.317 8.10667 12.757 8.24C12.6504 8.26666 12.3837 8.33333 11.957 8.44C11.557 8.52 11.197 8.61333 10.877 8.72C10.5837 8.82667 10.3704 8.96 10.237 9.12C9.97037 9.38667 9.83703 9.8 9.83703 10.36C9.83703 10.8933 9.9437 11.5333 10.157 12.28C10.397 13 10.5304 13.4267 10.557 13.56C10.8504 14.3867 11.0104 14.9733 11.037 15.32C12.1037 14.9467 13.3704 14.5733 14.837 14.2C16.3037 13.8 17.597 13.6 18.717 13.6C20.2904 13.6 21.077 14.0667 21.077 15C21.077 15.4267 20.9037 15.9733 20.557 16.64C20.1837 17.28 19.7437 17.76 19.237 18.08C18.7304 18.4 18.2104 18.6133 17.677 18.72C17.1437 18.8 16.4237 18.88 15.517 18.96C15.357 18.96 15.117 18.9733 14.797 19C14.5037 19.0267 14.2504 19.0533 14.037 19.08C13.9037 19.1067 13.6104 19.1467 13.157 19.2C12.7037 19.2267 12.317 19.3067 11.997 19.44C11.597 19.6 11.3437 19.72 11.237 19.8C11.157 19.8533 11.117 19.9733 11.117 20.16C11.117 20.32 11.1037 20.56 11.077 20.88C11.0237 21.6267 10.8904 22.7467 10.677 24.24L10.557 25.08C10.2904 26.8933 10.0104 28.4667 9.71703 29.8C9.4237 31.1333 9.01036 32.4133 8.47703 33.64C8.1037 34.44 7.57036 35.28 6.87703 36.16C6.21036 37.04 5.5437 37.48 4.87703 37.48C4.69036 37.48 4.51703 37.44 4.35703 37.36C3.87703 37.12 3.63703 36.3867 3.63703 35.16C3.63703 34.36 3.77036 33.1333 4.03703 31.48L4.15703 30.56L4.79703 24.6C4.95703 23.4267 5.0637 22.5467 5.11703 21.96L4.43703 22.36C3.21036 23.16 2.33036 23.56 1.79703 23.56C1.5837 23.56 1.41036 23.5067 1.27703 23.4C1.01036 23.16 0.877031 22.88 0.877031 22.56C0.877031 22 1.17036 21.3867 1.75703 20.72C2.3437 20.0533 2.91703 19.52 3.47703 19.12C3.71703 18.9333 3.9837 18.7733 4.27703 18.64C4.7837 18.32 5.1437 18.0267 5.35703 17.76C5.59703 17.4667 5.71703 17.0133 5.71703 16.4C5.71703 15.9467 5.6237 15.44 5.43703 14.88C5.3037 14.5067 5.1037 14.1467 4.83703 13.8C4.57036 13.4267 4.41036 13.2 4.35703 13.12C3.9837 12.5867 3.7037 12.16 3.51703 11.84C3.33036 11.4933 3.23703 11.12 3.23703 10.72C3.23703 10.4 3.31703 10.04 3.47703 9.64C3.85036 8.78667 4.47703 8.06667 5.35703 7.48C6.2637 6.89333 7.4237 6.29333 8.83703 5.68L9.91703 5.2C12.077 4.18666 14.0904 3.37333 15.957 2.76C17.8504 2.12 19.7037 1.74666 21.517 1.64ZM29.7105 21.36C30.7505 20.5333 31.5905 19.8 32.2305 19.16C32.8971 18.52 33.4038 17.88 33.7505 17.24C32.3105 16.8667 30.1771 16.2533 27.3505 15.4L27.1505 23.52C27.9505 22.8533 28.4171 22.4533 28.5505 22.32L29.7105 21.36ZM36.1505 26.96C36.3638 26.5333 36.8171 26.1733 37.5105 25.88C38.2038 25.56 38.8705 25.4 39.5105 25.4C40.3905 25.4 40.8305 25.68 40.8305 26.24C40.8305 26.4 40.7905 26.5867 40.7105 26.8C39.6171 29.36 38.7905 31.84 38.2305 34.24C38.0971 34.7733 37.7105 35.2667 37.0705 35.72C36.8038 36.0667 36.3905 36.36 35.8305 36.6C35.2971 36.84 34.7638 36.96 34.2305 36.96C33.7771 36.96 33.4038 36.8667 33.1105 36.68C32.8438 36.4933 32.6971 36.2 32.6705 35.8C32.5638 34.0667 31.9905 32.48 30.9505 31.04C29.9371 29.6 28.6305 28.6667 27.0305 28.24L26.8305 34.04C26.8038 34.5467 26.3771 35.0133 25.5505 35.44C24.7505 35.8667 23.9771 36.08 23.2305 36.08C22.8305 36.08 22.5105 36.0133 22.2705 35.88C22.0305 35.72 21.9105 35.48 21.9105 35.16L22.0305 29.64C21.6838 29.4 21.5105 29.12 21.5105 28.8C21.5105 28.4267 21.7105 28.0667 22.1105 27.72C22.2438 22.8667 22.4038 18.0267 22.5905 13.2C22.6171 12.64 22.9905 12.16 23.7105 11.76C24.4571 11.3333 25.2038 11.12 25.9505 11.12C26.5105 11.12 26.9105 11.2533 27.1505 11.52C30.0571 12.32 33.0705 13.2 36.1905 14.16C36.6705 14.0533 37.0038 14 37.1905 14C37.6438 14 37.9905 14.1067 38.2305 14.32C38.4971 14.5067 38.6305 14.8 38.6305 15.2C38.6305 16.2933 38.2705 17.3067 37.5505 18.24C36.8305 19.1467 35.8305 20.16 34.5505 21.28L33.7505 22C32.4705 23.2533 31.2305 24.36 30.0305 25.32C32.2171 25.9333 33.9771 27.1467 35.3105 28.96C35.4171 28.6933 35.6971 28.0267 36.1505 26.96ZM57.8614 31.36C58.2614 31.4933 58.4614 31.7333 58.4614 32.08C58.4614 32.5067 58.2081 32.9733 57.7014 33.48C57.1414 34.04 56.4214 34.32 55.5414 34.32C55.1147 34.32 54.7547 34.2667 54.4614 34.16C53.0481 33.7067 51.7681 33.48 50.6214 33.48C48.6214 33.48 46.5814 34.12 44.5014 35.4C44.1547 35.64 43.7281 35.84 43.2214 36C42.7414 36.1333 42.2881 36.2 41.8614 36.2C41.4614 36.2 41.1414 36.1333 40.9014 36C40.6614 35.84 40.5414 35.6 40.5414 35.28C40.5414 35.0933 40.5681 34.9333 40.6214 34.8C41.3947 32.64 42.0081 30.6933 42.4614 28.96C42.9414 27.2267 43.2614 25.4667 43.4214 23.68C43.6614 21.28 43.7814 19.52 43.7814 18.4C43.7814 15.44 43.2081 13.1733 42.0614 11.6C41.9281 11.44 41.8614 11.2267 41.8614 10.96C41.8614 10.4267 42.2347 9.93333 42.9814 9.48C43.7281 9 44.4614 8.76 45.1814 8.76C45.6614 8.76 46.0081 8.86667 46.2214 9.08C46.5681 9.21333 46.7947 9.42667 46.9014 9.72C47.5681 11.48 48.4881 12.9733 49.6614 14.2C50.8347 15.4 52.2214 16 53.8214 16C54.1147 16 54.5547 15.9467 55.1414 15.84C55.5147 15.7867 55.7547 15.76 55.8614 15.76C56.3147 15.76 56.6481 15.8667 56.8614 16.08C57.1014 16.2667 57.2214 16.5333 57.2214 16.88C57.2214 17.2533 57.0614 17.6267 56.7414 18C56.4481 18.3733 56.0481 18.64 55.5414 18.8C54.4481 19.1733 53.3547 19.36 52.2614 19.36C50.9547 19.36 49.7014 19.0933 48.5014 18.56C48.4481 20.0533 48.3814 21.1733 48.3014 21.92L48.0214 24.44C49.0614 24.2533 50.1014 24.0933 51.1414 23.96L51.7014 23.92C52.7681 23.92 53.3014 24.28 53.3014 25C53.3014 25.48 53.0347 25.9067 52.5014 26.28C51.9681 26.6533 51.4214 26.8933 50.8614 27C50.0347 27.16 48.9014 27.3333 47.4614 27.52C47.1681 28.8267 46.8481 30.0533 46.5014 31.2C48.2614 30.56 50.0481 30.24 51.8614 30.24C53.8614 30.24 55.8614 30.6133 57.8614 31.36ZM72.4677 18.12C71.961 17.6933 71.081 17.1333 69.8277 16.44C68.601 15.72 67.6543 15.36 66.9877 15.36C66.4543 15.36 66.1877 15.6267 66.1877 16.16C66.1877 16.3467 66.2543 16.6667 66.3877 17.12C66.5743 17.7333 66.9877 18.32 67.6277 18.88C68.2677 19.4133 69.1077 20.04 70.1477 20.76C71.001 21.3467 71.5477 21.7467 71.7877 21.96C72.961 22.9733 73.8943 23.8267 74.5877 24.52C75.281 25.1867 75.9077 25.9867 76.4677 26.92C77.0543 27.8267 77.3477 28.76 77.3477 29.72C77.3477 30.36 77.1877 31.0267 76.8677 31.72C76.2543 32.9733 75.241 33.9333 73.8277 34.6C72.441 35.2667 70.961 35.6 69.3877 35.6C68.8543 35.6 68.321 35.56 67.7877 35.48C64.161 34.8667 60.8143 32.4533 57.7477 28.24C57.5877 28 57.5077 27.76 57.5077 27.52C57.5077 26.9333 57.8943 26.4 58.6677 25.92C59.4677 25.4133 60.2543 25.16 61.0277 25.16C61.6143 25.16 62.041 25.3333 62.3077 25.68C63.961 27.92 65.5877 29.56 67.1877 30.6C68.6543 31.56 69.8943 32.04 70.9077 32.04C71.7343 32.04 72.1477 31.68 72.1477 30.96C72.1477 30.4533 71.9477 29.8267 71.5477 29.08C71.1477 28.36 70.6277 27.68 69.9877 27.04C69.3477 26.4 68.5343 25.6667 67.5477 24.84L66.4677 23.92C66.361 23.8133 65.8677 23.4267 64.9877 22.76C64.2677 22.2267 63.6543 21.7333 63.1477 21.28C62.641 20.8267 62.2143 20.3333 61.8677 19.8C61.4143 19.08 61.1877 18.3333 61.1877 17.56C61.1877 16.36 61.6943 15.2667 62.7077 14.28C63.7477 13.2667 64.9343 12.5733 66.2677 12.2C67.121 11.96 67.9343 11.84 68.7077 11.84C70.1477 11.84 71.5343 12.1733 72.8677 12.84C74.2277 13.5067 75.601 14.4267 76.9877 15.6C77.2277 15.7867 77.3477 16.0133 77.3477 16.28C77.3477 16.7867 76.9343 17.28 76.1077 17.76C75.281 18.24 74.4677 18.48 73.6677 18.48C73.1343 18.48 72.7343 18.36 72.4677 18.12ZM87.5623 14.04C87.5623 13.48 87.909 13 88.6023 12.6C89.2957 12.2 90.0157 12 90.7623 12C91.2157 12 91.5757 12.0933 91.8423 12.28C92.109 12.44 92.229 12.7067 92.2023 13.08C92.149 15.3733 92.0957 18.84 92.0423 23.48L91.8423 33.92C91.8157 34.5067 91.4423 35.0133 90.7223 35.44C90.029 35.8667 89.309 36.08 88.5623 36.08C88.0823 36.08 87.6957 35.9867 87.4023 35.8C87.1357 35.5867 87.0023 35.28 87.0023 34.88L87.1623 28.32C87.0557 28.3467 86.8957 28.36 86.6823 28.36L85.8823 28.32C85.6957 28.2933 85.4157 28.28 85.0423 28.28C84.8557 28.28 84.629 28.3067 84.3623 28.36C84.229 31.0267 84.0423 33.2933 83.8023 35.16C83.749 35.72 83.3357 36.2133 82.5623 36.64C81.8157 37.0667 81.069 37.28 80.3223 37.28C79.869 37.28 79.509 37.1867 79.2423 37C79.0023 36.8133 78.8957 36.5333 78.9223 36.16C79.3223 32.48 79.5757 29.12 79.6823 26.08L79.7223 24.88C79.8023 22.56 79.8423 21.0267 79.8423 20.28C79.8423 17.88 79.6957 16.4 79.4023 15.84C78.9757 15.8667 78.6423 15.8 78.4023 15.64C78.189 15.4533 78.0823 15.2267 78.0823 14.96C78.0823 14.6933 78.189 14.4133 78.4023 14.12C78.6157 13.8267 78.8823 13.5867 79.2023 13.4C80.2157 12.84 81.0823 12.56 81.8023 12.56C82.389 12.56 82.909 12.7467 83.3623 13.12C84.0557 13.7067 84.4023 14.9333 84.4023 16.8L84.3623 18.8C84.4423 20.16 84.4823 21.5333 84.4823 22.92L84.4423 25.28C84.6023 25.2267 84.8557 25.2267 85.2023 25.28C85.549 25.3333 85.8157 25.36 86.0023 25.36C86.189 25.36 86.4023 25.3467 86.6423 25.32C86.8823 25.2667 87.0957 25.2267 87.2823 25.2L87.5623 14.04Z" fill="#E63946"/>
<path d="M110.152 7.88C109.699 7.93333 109.286 7.86667 108.912 7.68C108.539 7.46666 108.352 7.17333 108.352 6.8C108.352 6.64 108.392 6.46667 108.472 6.28C109.086 5.05333 109.392 3.84 109.392 2.64C109.392 2.26667 109.712 1.86667 110.352 1.44C110.886 1.04 111.552 0.733331 112.352 0.519998C112.646 0.439999 112.979 0.399999 113.352 0.399999C114.286 0.399999 114.766 0.733332 114.792 1.4C114.819 2.2 114.726 3.01333 114.512 3.84C114.326 4.66666 114.032 5.38667 113.632 6C113.259 6.56 112.766 7 112.152 7.32C111.539 7.64 110.872 7.82667 110.152 7.88ZM131.45 12.76C130.81 17.6133 130.49 22.1867 130.49 26.48C130.49 28.56 130.57 30.6667 130.73 32.8C130.783 32.96 130.81 33.0933 130.81 33.2C130.81 33.28 130.783 33.4 130.73 33.56C130.73 33.5867 130.717 33.6 130.69 33.6V33.68C130.53 34.1333 130.157 34.5333 129.57 34.88C128.983 35.2 128.357 35.3867 127.69 35.44C126.623 35.5467 125.983 35.2667 125.77 34.6C124.837 32.0933 123.357 28.6267 121.33 24.2L120.85 23.08C120.637 26.4133 120.503 29.9733 120.45 33.76C120.45 34.32 120.077 34.8267 119.33 35.28C118.583 35.7067 117.823 35.92 117.05 35.92C116.57 35.92 116.183 35.8267 115.89 35.64C115.597 35.4533 115.463 35.1467 115.49 34.72C115.65 27.4667 116.17 20.6 117.05 14.12L117.09 13.96C117.037 13.3733 117.397 12.84 118.17 12.36C118.943 11.88 119.717 11.64 120.49 11.64C121.29 11.64 121.783 11.9067 121.97 12.44C122.823 14.76 124.09 17.7467 125.77 21.4C125.93 18.8933 126.21 16.3467 126.61 13.76C126.69 13.2267 127.117 12.76 127.89 12.36C128.663 11.9333 129.423 11.72 130.17 11.72C131.13 11.72 131.557 12.0667 131.45 12.76Z" fill="white"/>
<path d="M145.869 3.44C146.216 3.25333 146.589 3.16 146.989 3.16C147.549 3.16 148.069 3.32 148.549 3.64C148.736 3.77333 148.909 3.90666 149.069 4.04C149.229 4.17333 149.376 4.29333 149.509 4.4C149.669 4.50666 149.882 4.61333 150.149 4.72C150.416 4.82667 150.642 4.93333 150.829 5.04C151.629 5.46666 152.802 6.13333 154.349 7.04L157.909 9.08C159.962 10.2533 161.762 11.2667 163.309 12.12L165.869 13.48C167.389 14.2533 168.669 14.9467 169.709 15.56C170.776 16.1733 171.762 16.8667 172.669 17.64C173.336 18.2533 173.856 18.8533 174.229 19.44C174.602 20.0267 174.789 20.6667 174.789 21.36L174.749 21.8C174.482 23.3467 173.669 24.8267 172.309 26.24C171.269 27.36 170.042 28.32 168.629 29.12C167.242 29.92 165.642 30.68 163.829 31.4C160.736 32.5733 157.189 33.6267 153.189 34.56C152.762 34.6667 152.456 34.7333 152.269 34.76L150.629 35.16L148.309 35.6C147.589 35.7333 146.709 35.8667 145.669 36C145.562 36.0267 145.362 36.08 145.069 36.16C144.802 36.2133 144.562 36.24 144.349 36.24C144.242 36.24 144.082 36.2133 143.869 36.16C143.309 36.0533 143.029 35.72 143.029 35.16C143.029 34.7867 143.162 34.36 143.429 33.88C143.669 33.3733 143.922 32.9733 144.189 32.68C144.989 31.7467 146.162 31.1067 147.709 30.76C148.029 30.68 148.216 30.6 148.269 30.52C148.349 30.4133 148.402 30.1867 148.429 29.84C148.429 29.36 148.456 28.64 148.509 27.68C148.722 25.1467 148.856 23.2133 148.909 21.88C149.016 20.6 149.082 19.64 149.109 19C149.136 18.8667 149.162 18.6933 149.189 18.48C149.216 18.24 149.229 17.96 149.229 17.64C149.229 17.2933 149.176 16.9733 149.069 16.68C148.509 15.32 147.616 13.64 146.389 11.64C146.389 11.6667 146.402 11.7067 146.429 11.76C146.482 11.7867 146.522 11.8533 146.549 11.96C146.202 11.3467 145.629 10.4533 144.829 9.28C144.722 9.14667 144.602 8.97333 144.469 8.76C144.336 8.54667 144.216 8.37333 144.109 8.24C144.029 8.16 143.922 8.05333 143.789 7.92C143.656 7.76 143.549 7.62666 143.469 7.52C143.336 7.25333 143.269 7.01333 143.269 6.8C143.269 6.21333 143.562 5.6 144.149 4.96C144.709 4.32 145.282 3.81333 145.869 3.44ZM155.189 29.2C157.616 28.6667 160.242 27.96 163.069 27.08C164.589 26.6 165.829 26.16 166.789 25.76C167.749 25.36 168.656 24.84 169.509 24.2C168.736 23.2667 167.856 22.4667 166.869 21.8C165.909 21.1067 164.536 20.2267 162.749 19.16L159.749 17.36L154.909 14.36C155.896 17.16 156.389 19.7867 156.389 22.24C156.389 24.0267 156.136 25.8 155.629 27.56L155.189 29.2ZM183.695 21.36C184.735 20.5333 185.575 19.8 186.215 19.16C186.882 18.52 187.388 17.88 187.735 17.24C186.295 16.8667 184.162 16.2533 181.335 15.4L181.135 23.52C181.935 22.8533 182.402 22.4533 182.535 22.32L183.695 21.36ZM190.135 26.96C190.348 26.5333 190.802 26.1733 191.495 25.88C192.188 25.56 192.855 25.4 193.495 25.4C194.375 25.4 194.815 25.68 194.815 26.24C194.815 26.4 194.775 26.5867 194.695 26.8C193.602 29.36 192.775 31.84 192.215 34.24C192.082 34.7733 191.695 35.2667 191.055 35.72C190.788 36.0667 190.375 36.36 189.815 36.6C189.282 36.84 188.748 36.96 188.215 36.96C187.762 36.96 187.388 36.8667 187.095 36.68C186.828 36.4933 186.682 36.2 186.655 35.8C186.548 34.0667 185.975 32.48 184.935 31.04C183.922 29.6 182.615 28.6667 181.015 28.24L180.815 34.04C180.788 34.5467 180.362 35.0133 179.535 35.44C178.735 35.8667 177.962 36.08 177.215 36.08C176.815 36.08 176.495 36.0133 176.255 35.88C176.015 35.72 175.895 35.48 175.895 35.16L176.015 29.64C175.668 29.4 175.495 29.12 175.495 28.8C175.495 28.4267 175.695 28.0667 176.095 27.72C176.228 22.8667 176.388 18.0267 176.575 13.2C176.602 12.64 176.975 12.16 177.695 11.76C178.442 11.3333 179.188 11.12 179.935 11.12C180.495 11.12 180.895 11.2533 181.135 11.52C184.042 12.32 187.055 13.2 190.175 14.16C190.655 14.0533 190.988 14 191.175 14C191.628 14 191.975 14.1067 192.215 14.32C192.482 14.5067 192.615 14.8 192.615 15.2C192.615 16.2933 192.255 17.3067 191.535 18.24C190.815 19.1467 189.815 20.16 188.535 21.28L187.735 22C186.455 23.2533 185.215 24.36 184.015 25.32C186.202 25.9333 187.962 27.1467 189.295 28.96C189.402 28.6933 189.682 28.0267 190.135 26.96ZM196.566 14.08C196.592 13.5467 196.979 13.08 197.726 12.68C198.472 12.2533 199.219 12.04 199.966 12.04C200.392 12.04 200.739 12.1333 201.006 12.32C201.272 12.48 201.392 12.7467 201.366 13.12L200.206 34.84C200.179 35.4 199.792 35.8933 199.046 36.32C198.299 36.72 197.552 36.92 196.806 36.92C195.819 36.92 195.339 36.5333 195.366 35.76L196.566 14.08ZM196.486 8.8C196.432 9.17333 196.526 9.45333 196.766 9.64C197.032 9.82667 197.379 9.92 197.806 9.92C198.526 9.92 199.259 9.72 200.006 9.32C200.752 8.92 201.166 8.44 201.246 7.88C201.459 6.54666 201.606 5.54666 201.686 4.88C201.792 4.21333 201.379 3.88 200.446 3.88C199.726 3.88 198.979 4.08 198.206 4.48C197.432 4.88 197.019 5.33333 196.966 5.84L196.486 8.8ZM213.291 24.08C213.691 23.0667 213.891 22.0933 213.891 21.16C213.891 19.9333 213.544 18.9333 212.851 18.16C211.811 16.9333 210.064 16.3467 207.611 16.4C207.131 20.6133 206.758 25.6933 206.491 31.64C208.011 30.84 209.371 29.7867 210.571 28.48C211.771 27.1467 212.678 25.68 213.291 24.08ZM208.011 13.28C208.304 13.2533 208.758 13.24 209.371 13.24C212.624 13.24 215.051 14.04 216.651 15.64C217.851 16.8133 218.451 18.32 218.451 20.16C218.451 21.12 218.238 22.2667 217.811 23.6C216.931 26.1067 215.464 28.36 213.411 30.36C211.358 32.3333 209.011 33.84 206.371 34.88C206.264 37.6 206.184 39.9733 206.131 42C206.078 44.0533 206.038 45.76 206.011 47.12C205.984 50.3733 205.904 53.64 205.771 56.92C205.744 57.48 205.344 57.9733 204.571 58.4C203.798 58.8267 203.011 59.04 202.211 59.04C201.278 59.04 200.811 58.6933 200.811 58L200.851 54.8C200.878 53.76 200.918 51.2533 200.971 47.28C201.051 43.3067 201.171 39.6 201.331 36.16C200.611 36.24 199.904 36.28 199.211 36.28C198.704 36.28 198.331 36.2 198.091 36.04C197.824 35.88 197.691 35.6667 197.691 35.4C197.691 34.92 198.024 34.4133 198.691 33.88C199.331 33.3467 199.984 33.08 200.651 33.08C201.024 33.08 201.291 33.0667 201.451 33.04C201.744 27.3067 202.198 21.8 202.811 16.52C202.624 16.4133 202.531 16.24 202.531 16C202.531 15.68 202.704 15.3067 203.051 14.88C203.051 14.72 203.078 14.4533 203.131 14.08C203.211 13.52 203.638 13.04 204.411 12.64C205.184 12.2133 205.931 12 206.651 12C207.104 12 207.451 12.0933 207.691 12.28C207.958 12.4667 208.064 12.7467 208.011 13.12V13.28Z" fill="#37B3FF"/>
</svg>
